<svg width="188" height="32" xmlns="http://www.w3.org/2000/svg"><path d="M13.678 32c4.953 0 7.964-1.674 11.85-5.555 2.743-2.74 4.687-6.431 4.953-11.11H16.459l-3.123 3.12v3.575h11.126c-.686 1.067-3.087 3.045-7.355 3.045-5.83 0-10.363-4.414-10.363-10.578 0-2.74.762-4.642 1.867-5.746 1.104-1.103 2.667-1.788 5.143-1.788 2.858 0 5.907 1.027 8.46 3.159l3.695-3.426.419-1.14c-2.21-1.56-5.83-3.082-9.22-3.082-6.363 0-11.583 4.718-11.583 11.91 0 6.963 5.144 11.832 11.582 11.832 6.783 0 9.716-4.413 10.63-8.523H17.222V16.4h12.077c-.646 5.404-4.571 11.186-12.192 11.186-7.468 0-13.145-5.746-13.145-13.203 0-7.914 6.402-13.279 13.145-13.279 3.924 0 7.43 1.56 9.64 3.196l.382-1.178C24.881 1.636 21.451 0 17.183 0c-4.535 0-8.23 1.903-11.317 4.985C2.059 8.789 0 13.127 0 17.998 0 26.293 6.82 32 13.678 32ZM36.806.647h-1.144l-3.428 3.424v27.283h12.65l3.314-3.31v-1.067H36.806V.647Zm2.59 0h-1.142v25.036h9.944V24.62h-8.802V.647ZM64.2 5.137l-6.171 15.41h12.04L64.2 5.137Zm.533 14.344H59.59l2.667-6.58 2.476 6.58Zm-7.504 6.47h9.906l2.057 5.516h3.01l3.43-3.424L64.732.04h-1.066l-4.534 4.565-10.782 26.863h4.647l3.43-3.424.8-2.092Zm16.765 1.026h-1.525l-1.906-5.136h-13.03l-1.943 5.136h-1.486L64.124 1.6h.153l9.717 25.378Zm7.619-24.656h.114l11.926 16.208 11.812-16.208h.114v24.656h-1.372V6.507L93.653 20.851h-.038L82.985 6.468v20.51h-1.372V2.32ZM80.47.38l-3.43 3.423v27.663h3.66l3.428-3.424-.039-11.834 6.897 9.132h.762l7.887-10.806v16.932h3.658l3.428-3.424V.381h-1.104l-5.372 3.843-7.887 10.616L81.536.38H80.47Zm52.466 17.312c0 2.397-.648 4.262-1.868 5.48-1.219 1.217-2.819 1.902-5.219 1.902-6.289 0-10.48-4.68-10.48-10.845 0-2.625.726-4.604 1.944-5.821 1.22-1.217 3.049-1.902 5.564-1.902 5.79 0 10.06 4.413 10.06 11.186Zm-20.349-3.349c0-7.343 5.869-13.24 13.145-13.24 7.392 0 13.145 5.783 13.145 13.24 0 7.345-5.867 13.243-13.145 13.243-7.392 0-13.145-5.784-13.145-13.243Zm1.563 0c0 6.773 4.992 11.872 11.582 11.872 6.59 0 11.583-5.136 11.583-11.872 0-6.773-4.99-11.87-11.583-11.87-6.592 0-11.582 5.097-11.582 11.87Zm25.908-.075c0-7.99-6.324-14.269-14.25-14.269-4.534 0-8.229 1.903-11.315 4.985-3.81 3.804-5.868 8.104-5.868 13.013.001 8.295 6.937 14.002 13.984 14.002 4.382 0 8.002-1.674 11.279-4.946 4.877-4.87 6.172-8.79 6.172-12.786l-.002.001Zm18.861 13.963c2.17-2.167 4.305-5.211 4.305-9.359V.647h-1.143v18.15c0 5.06-3.01 8.713-7.963 8.713s-7.963-3.728-7.963-8.713V.647h-1.144l-3.43 3.424v17.62c0 5.554 3.698 9.968 9.49 9.968 3.009 0 5.295-.876 7.847-3.425l.001-.002Zm-3.772-3.918c-.42.418-1.03.647-1.867.647-.99 0-1.981-.38-2.82-1.18-1.03-.989-1.714-2.51-1.714-5.175V.647h-1.144v18.035c0 4.453 2.363 7.458 6.516 7.458 4.153 0 6.515-3.005 6.515-7.42V.647h-1.144l-3.39 3.424v16.057c0 2.588-.38 3.615-.952 4.186ZM171.72 3.007v14.952h2.972c5.334 0 8.916-2.51 8.916-7.723 0-4.49-3.429-7.23-8.611-7.23h-3.277Zm1.106 13.888V7.078h1.104c1.868 0 3.239.684 4.192 1.673a5.152 5.152 0 0 1 1.447 3.615c0 1.294-.343 2.549-1.028 3.272-.8.838-1.638 1.257-3.696 1.257h-2.019Zm11.125 10.082h-2.057l-9.678-7.838h-.496v7.838h-1.447V1.711h4.763c5.79 0 10.02 3.312 10.02 8.448 0 5.86-4.458 8.98-10.401 8.98h-.458l9.754 7.838Zm-11.088-1.14 6.821 5.63h3.963l3.43-3.424-8.116-6.507c1.865-1.408 4.037-3.463 5.257-5.1.57-.759 2.057-2.928 2.057-6.277 0-5.783-4.496-9.512-11.2-9.512h-5.945l-3.43 3.424v27.396h3.734l3.43-3.424-.001-2.206Z" fill="#1E306E" fill-rule="nonzero"/></svg>